HIERARCHY
ROOT SpineBase
{
  OFFSET 0.000000 0.000000 0.000000
  CHANNELS 6 Xposition Yposition Zposition Zrotation Xrotation Yrotation
  JOINT SpineMid
  {
    OFFSET 0.000000 34.069391 0.000000
    CHANNELS 3 Zrotation Xrotation Yrotation
    JOINT SpineShoulder
    {
      OFFSET -0.085759 25.313258 -0.706525
      CHANNELS 3 Zrotation Xrotation Yrotation
      JOINT Neck
      {
        OFFSET 0.018986 8.338056 -0.514741
        CHANNELS 3 Zrotation Xrotation Yrotation
        JOINT Head
        {
          OFFSET 6.186940 10.580326 4.050121
          CHANNELS 3 Zrotation Xrotation Yrotation
          End Site
          {
            OFFSET 0 0 0
          }
        }
      }
      JOINT ShoulderLeft
      {
        OFFSET -3.926945 -4.926927 -15.591220
        CHANNELS 3 Zrotation Xrotation Yrotation
        JOINT ElbowLeft
        {
          OFFSET -2.939957 -25.691529 -7.685935
          CHANNELS 3 Zrotation Xrotation Yrotation
          JOINT WristLeft
          {
            OFFSET 6.136259 -23.214462 -3.777971
            CHANNELS 3 Zrotation Xrotation Yrotation
            JOINT HandLeft
            {
              OFFSET 1.253671 -8.068224 0.792517
              CHANNELS 3 Zrotation Xrotation Yrotation
              JOINT HandTipLeft
              {
                OFFSET 1.458553 -7.740628 1.623356
                CHANNELS 3 Zrotation Xrotation Yrotation
                End Site
                {
                  OFFSET 0 0 0
                }
              }
              JOINT ThumbLeft
              {
                OFFSET -2.135123 0.279975 -3.516985
                CHANNELS 3 Zrotation Xrotation Yrotation
                End Site
                {
                  OFFSET 0 0 0
                }
              }
            }
          }
        }
      }
      JOINT ShoulderRight
      {
        OFFSET 4.587066 -14.300293 14.301559
        CHANNELS 3 Zrotation Xrotation Yrotation
        JOINT ElbowRight
        {
          OFFSET 13.557998 -18.745017 -15.069967
          CHANNELS 3 Zrotation Xrotation Yrotation
          JOINT WristRight
          {
            OFFSET -2.737491 -21.757460 4.855952
            CHANNELS 3 Zrotation Xrotation Yrotation
            JOINT HandRight
            {
              OFFSET 0.021325 -7.755705 -0.716431
              CHANNELS 3 Zrotation Xrotation Yrotation
              JOINT HandTipRight
              {
                OFFSET -1.192527 -3.787778 0.427057
                CHANNELS 3 Zrotation Xrotation Yrotation
                End Site
                {
                  OFFSET 0 0 0
                }
              }
              JOINT ThumbRight
              {
                OFFSET 0.494659 2.304020 -4.160097
                CHANNELS 3 Zrotation Xrotation Yrotation
                End Site
                {
                  OFFSET 0 0 0
                }
              }
            }
          }
        }
      }
    }
  }
  JOINT HipLeft
  {
    OFFSET -0.870666 0.887706 -9.628797
    CHANNELS 3 Zrotation Xrotation Yrotation
    JOINT KneeLeft
    {
      OFFSET -2.409782 -33.768478 -0.803143
      CHANNELS 3 Zrotation Xrotation Yrotation
      JOINT AnkleLeft
      {
        OFFSET -6.100039 -38.047785 4.916807
        CHANNELS 3 Zrotation Xrotation Yrotation
        JOINT FootLeft
        {
          OFFSET 2.346176 -6.810004 1.297579
          CHANNELS 3 Zrotation Xrotation Yrotation
          End Site
          {
            OFFSET 0 0 0
          }
        }
      }
    }
  }
  JOINT HipRight
  {
    OFFSET 2.801132 0.166696 2.218711
    CHANNELS 3 Zrotation Xrotation Yrotation
    JOINT KneeRight
    {
      OFFSET -2.709440 -27.199495 -14.587768
      CHANNELS 3 Zrotation Xrotation Yrotation
      JOINT AnkleRight
      {
        OFFSET -11.480836 -32.182566 9.559384
        CHANNELS 3 Zrotation Xrotation Yrotation
        JOINT FootRight
        {
          OFFSET -0.659487 -10.050918 -9.716437
          CHANNELS 3 Zrotation Xrotation Yrotation
          End Site
          {
            OFFSET 0 0 0
          }
        }
      }
    }
  }
}
MOTION
Frames: 9
Frame Time: 0.033333
-90.161844 77.738562 344.109971 -0.000000 0.000000 -72.780663 0.000000 0.000000 72.780663 -0.000000 0.000000 0.000000 -0.000000 0.000000 0.000000 0.000000 0.000000 0.000000 -0.000000 0.000000 0.000000 -0.000000 0.000000 0.000000 -0.000000 0.000000 0.000000 -0.000000 0.000000 0.000000 0.000000 0.000000 0.000000 0.000000 0.000000 0.000000 -0.000000 0.000000 0.000000 -0.000000 0.000000 0.000000 -0.000000 0.000000 0.000000 -0.000000 0.000000 0.000000 0.000000 0.000000 0.000000 0.000000 0.000000 0.000000 0.000000 0.000000 72.780663 -0.000000 0.000000 0.000000 -0.000000 0.000000 0.000000 0.000000 0.000000 0.000000 0.000000 0.000000 72.780663 -0.000000 0.000000 0.000000 -0.000000 0.000000 0.000000 0.000000 0.000000 0.000000
-90.899811 77.934763 344.087653 -0.429694 0.508176 -72.856810 0.612252 0.260816 72.857322 -0.000000 0.000000 0.000000 1.382959 0.481769 -0.821415 0.000000 0.000000 0.000000 0.115322 -1.457835 0.134327 0.216505 -1.020565 -0.844114 -2.721548 -2.278694 -0.247637 5.204652 4.655168 1.206989 0.000000 0.000000 0.000000 0.000000 0.000000 0.000000 -0.000000 0.000000 0.000000 -4.629360 -12.466807 0.034084 5.025005 0.756917 -1.167684 -0.517100 11.657675 0.131482 0.000000 0.000000 0.000000 0.000000 0.000000 0.000000 1.551437 0.674351 72.889039 -2.050160 1.428290 -0.290650 26.047236 17.315350 7.278126 0.000000 0.000000 0.000000 3.916378 0.658510 72.400409 -1.902937 0.652582 1.163174 13.809637 4.739621 -14.234060 0.000000 0.000000 0.000000
-91.524246 78.084377 344.094264 -0.752119 0.913847 -72.908765 0.027528 -0.017999 72.896226 -0.069085 -0.026971 -0.035695 3.560217 0.011166 -1.487285 0.000000 0.000000 0.000000 1.126555 -3.456445 0.282420 0.345514 -1.824050 -1.491027 -5.253398 -4.622154 -0.550438 9.471873 8.868860 1.691788 0.000000 0.000000 0.000000 0.000000 0.000000 0.000000 0.831126 -0.854517 0.059427 -8.484459 -22.291038 -0.694168 8.810753 1.612748 -2.850627 -0.354834 19.873604 0.370577 0.000000 0.000000 0.000000 0.000000 0.000000 0.000000 2.680703 1.065571 72.959743 -3.549094 2.548087 -0.488956 40.834964 27.985721 8.259513 0.000000 0.000000 0.000000 8.047757 0.841967 72.160881 -3.363169 2.953074 1.864014 25.652530 4.401418 -26.638895 0.000000 0.000000 0.000000
-92.035146 78.187405 344.129804 -0.966018 1.215610 -72.937038 0.009948 -0.034377 72.923055 -0.090103 -0.043851 -0.047314 5.129035 0.002309 -2.135182 0.000000 0.000000 0.000000 1.622325 -4.580503 0.344122 0.405126 -2.395494 -1.934491 -7.344032 -6.508916 -0.814135 12.614804 12.032344 1.728905 0.000000 0.000000 0.000000 0.000000 0.000000 0.000000 1.087502 -1.150859 0.080633 -11.492267 -29.255340 -1.699458 11.425119 3.067380 -4.445439 -0.513110 25.080421 0.479033 0.000000 0.000000 0.000000 0.000000 0.000000 0.000000 3.396851 1.175511 73.003457 -4.511474 3.365845 -0.628705 48.446709 33.319120 7.946935 0.000000 0.000000 0.000000 12.467790 0.559379 72.105179 -4.459507 6.954915 2.111115 33.751854 0.977526 -34.752823 0.000000 0.000000 0.000000
-92.432514 78.243846 344.194274 -1.070625 1.412581 -72.941374 -0.027872 -0.055374 72.927130 -0.101826 -0.063247 -0.054473 6.558192 -0.009833 -2.729169 0.000000 0.000000 0.000000 2.067531 -5.298012 0.349604 0.408050 -2.732764 -2.173227 -8.763624 -7.482955 -0.916913 14.405162 13.661424 1.622980 0.000000 0.000000 0.000000 0.000000 0.000000 0.000000 1.235507 -1.358046 0.093945 -13.618625 -33.761260 -2.614134 13.235503 5.799510 -5.682895 -0.636689 26.664126 0.546593 0.000000 0.000000 0.000000 0.000000 0.000000 0.000000 3.705610 1.005086 73.024778 -4.945706 3.886959 -0.732726 51.962663 35.938173 7.752059 0.000000 0.000000 0.000000 17.254903 -0.185928 72.296732 -5.215116 12.728321 1.886760 38.622715 -3.932473 -38.605414 0.000000 0.000000 0.000000
-92.716348 78.253700 344.287673 -1.065651 1.504330 -72.920646 -0.085481 -0.080727 72.906462 -0.104150 -0.085250 -0.057008 7.849912 -0.022379 -3.275660 0.000000 0.000000 0.000000 2.459748 -5.608379 0.295313 0.360692 -2.842825 -2.209731 -9.358293 -7.250485 -0.766408 14.657213 13.469451 1.585201 0.000000 0.000000 0.000000 0.000000 0.000000 0.000000 1.274274 -1.475277 0.098360 -14.852248 -36.269911 -3.214610 14.607914 10.749779 -6.532855 -0.709870 24.138731 0.569791 0.000000 0.000000 0.000000 0.000000 0.000000 0.000000 3.609388 0.554044 73.022350 -4.854501 4.114307 -0.813779 52.685835 36.975075 7.900214 0.000000 0.000000 0.000000 22.486753 -1.385795 72.822013 -5.586041 20.350790 1.129991 41.291053 -9.932026 -38.799900 0.000000 0.000000 0.000000
-92.559275 78.163094 344.351920 -0.578203 1.439528 -72.928168 -0.228911 -0.149209 72.916851 -0.127311 -0.137424 -0.046281 8.487508 -0.003157 -3.715840 0.000000 0.000000 0.000000 2.568215 -5.231635 0.106917 -0.115122 -2.863019 -1.908256 -9.906669 -4.000729 -0.150906 13.822973 8.507220 1.495574 0.000000 0.000000 0.000000 0.000000 0.000000 0.000000 0.917033 -1.476164 0.071733 -12.134525 -31.790299 -1.932361 14.311444 21.476387 -6.009122 -1.214013 9.032390 0.604089 0.000000 0.000000 0.000000 0.000000 0.000000 0.000000 2.660455 -1.400899 73.081124 -3.062340 3.950618 -0.880389 49.431588 38.150654 8.434749 0.000000 0.000000 0.000000 30.202192 -4.389465 74.934694 -4.549660 32.897996 -1.232443 43.965556 -13.530030 -36.922556 0.000000 0.000000 0.000000
-92.588851 78.063259 344.515395 -0.318711 1.299809 -72.855714 -0.348417 -0.136396 72.847078 -0.101942 -0.138050 -0.035899 9.403420 -0.191269 -4.077301 0.000000 0.000000 0.000000 2.758508 -4.667459 -0.096989 -0.254946 -2.370621 -1.475226 -8.638122 -0.414407 0.609182 10.362923 3.888414 1.279701 0.000000 0.000000 0.000000 0.000000 0.000000 0.000000 0.654932 -1.453978 0.052013 -11.776868 -31.182526 -1.778440 16.499727 35.453244 -7.361354 -1.888547 -5.451632 0.452829 0.000000 0.000000 0.000000 0.000000 0.000000 0.000000 1.556530 -2.676510 72.992569 -1.516299 3.530825 -0.909197 39.859097 30.947016 9.842977 0.000000 0.000000 0.000000 37.748050 -6.647734 77.024834 -2.962660 46.970438 -4.770331 44.690325 -24.209030 -28.032607 0.000000 0.000000 0.000000
-92.707605 77.959888 344.697497 -0.196469 1.100946 -72.721588 -0.414129 -0.128822 72.713845 -0.038892 -0.165981 -0.026464 10.540144 -0.190627 -4.548604 0.000000 0.000000 0.000000 3.095286 -3.757389 -0.348650 -0.217074 -1.605370 -0.923935 -6.024151 2.902831 1.256268 4.431604 -1.120126 0.250240 0.000000 0.000000 0.000000 0.000000 0.000000 0.000000 0.482203 -1.291858 0.038120 -11.610516 -30.699908 -1.713518 17.323138 41.370776 -7.960623 -3.130701 -12.158899 0.070950 0.000000 0.000000 0.000000 0.000000 0.000000 0.000000 0.434355 -3.364313 72.804394 -0.127186 2.902194 -0.868163 32.561093 26.172335 9.976548 0.000000 0.000000 0.000000 44.543896 -8.252573 78.904304 0.157423 58.613802 -9.139531 40.511770 -41.212955 -11.252446 0.000000 0.000000 0.000000
